<svg width="50" height="50" viewBox="0 0 50 50" fill="none" xmlns="http://www.w3.org/2000/svg">
<g opacity="0.6">
<mask id="mask0_103_229" style="mask-type:alpha" maskUnits="userSpaceOnUse" x="0" y="0" width="50" height="50">
<rect x="50" y="50" width="50" height="50" transform="rotate(-180 50 50)" fill="#D9D9D9"/>
</mask>
<g mask="url(#mask0_103_229)">
<path d="M30.4167 25.0002L15.7292 10.3127C15.2431 9.82655 15 9.23627 15 8.54183C15 7.84739 15.2431 7.25711 15.7292 6.771C16.2153 6.28489 16.8056 6.04183 17.5 6.04183C18.1944 6.04183 18.7847 6.28489 19.2708 6.771L34.8438 22.3439C35.2257 22.7259 35.5035 23.1425 35.6771 23.5939C35.8507 24.0453 35.9375 24.5141 35.9375 25.0002C35.9375 25.4863 35.8507 25.955 35.6771 26.4064C35.5035 26.8578 35.2257 27.2745 34.8438 27.6564L19.2708 43.2293C18.7847 43.7154 18.1944 43.9585 17.5 43.9585C16.8056 43.9585 16.2153 43.7154 15.7292 43.2293C15.2431 42.7432 15 42.1529 15 41.4585C15 40.7641 15.2431 40.1738 15.7292 39.6877L30.4167 25.0002Z" fill="white"/>
</g>
</g>
</svg>
