<svg width="50" height="50" viewBox="0 0 50 50" fill="none" xmlns="http://www.w3.org/2000/svg">
<g opacity="0.6">
<mask id="mask0_103_226" style="mask-type:alpha" maskUnits="userSpaceOnUse" x="0" y="0" width="50" height="50">
<rect width="50" height="50" fill="#D9D9D9"/>
</mask>
<g mask="url(#mask0_103_226)">
<path d="M19.5833 24.9998L34.2708 39.6873C34.7569 40.1735 35 40.7637 35 41.4582C35 42.1526 34.7569 42.7429 34.2708 43.229C33.7847 43.7151 33.1944 43.9582 32.5 43.9582C31.8056 43.9582 31.2153 43.7151 30.7292 43.229L15.1562 27.6561C14.7743 27.2741 14.4965 26.8575 14.3229 26.4061C14.1493 25.9547 14.0625 25.4859 14.0625 24.9998C14.0625 24.5137 14.1493 24.045 14.3229 23.5936C14.4965 23.1422 14.7743 22.7255 15.1562 22.3436L30.7292 6.77067C31.2153 6.28456 31.8056 6.0415 32.5 6.0415C33.1944 6.0415 33.7847 6.28456 34.2708 6.77067C34.7569 7.25678 35 7.84706 35 8.5415C35 9.23595 34.7569 9.82623 34.2708 10.3123L19.5833 24.9998Z" fill="white"/>
</g>
</g>
</svg>
